<svg width="1584" height="396" viewBox="0 0 1584 396" fill="none" xmlns="http://www.w3.org/2000/svg">
<rect width="1584" height="396" fill="#F5F5F5"/>
<g id="Awesome banner" clip-path="url(#clip0_0_1)">
<rect width="1584" height="396" fill="url(#paint0_linear_0_1)"/>
<ellipse id="Ellipse 2" cx="323" cy="64" rx="285" ry="288" fill="url(#paint1_linear_0_1)" fill-opacity="0.1"/>
<g id="copyright">
<path d="M75.95 334.52L72.30 334.52L72.30 311.16L77.20 311.16L83.70 330.04Q83.60 329.02 83.50 327.62Q83.41 326.23 83.33 324.79Q83.25 323.35 83.25 322.23L83.25 311.16L86.90 311.16L86.90 334.52L82 334.52L75.57 315.64Q75.63 316.57 75.73 317.88Q75.82 319.19 75.89 320.57Q75.95 321.94 75.95 323.10L75.95 334.52M98.80 334.84Q96.46 334.84 94.67 333.96Q92.88 333.08 91.89 331.53Q90.90 329.98 90.90 327.93Q90.90 325.78 92.13 324.18Q93.36 322.58 95.34 322.17L95.34 322.10Q93.65 321.75 92.61 320.38Q91.57 319 91.57 317.11Q91.57 315.26 92.48 313.85Q93.39 312.44 95.02 311.64Q96.66 310.84 98.80 310.84Q100.94 310.84 102.59 311.64Q104.24 312.44 105.15 313.85Q106.06 315.26 106.06 317.11Q106.06 319 105.01 320.38Q103.95 321.75 102.26 322.10L102.26 322.17Q104.24 322.58 105.47 324.18Q106.70 325.78 106.70 327.93Q106.70 329.98 105.71 331.53Q104.72 333.08 102.93 333.96Q101.14 334.84 98.80 334.84M98.80 320.73Q100.30 320.73 101.23 319.82Q102.16 318.90 102.16 317.46Q102.16 315.99 101.23 315.08Q100.30 314.17 98.80 314.17Q97.30 314.17 96.37 315.08Q95.44 315.99 95.44 317.46Q95.44 318.90 96.37 319.82Q97.30 320.73 98.80 320.73M98.80 331.45Q100.56 331.45 101.68 330.42Q102.80 329.40 102.80 327.74Q102.80 326.04 101.68 325Q100.56 323.96 98.80 323.96Q97.04 323.96 95.92 325Q94.80 326.04 94.80 327.74Q94.80 329.40 95.92 330.42Q97.04 331.45 98.80 331.45M114.35 334.52L110.70 334.52L110.70 311.16L115.60 311.16L122.10 330.04Q122 329.02 121.90 327.62Q121.81 326.23 121.73 324.79Q121.65 323.35 121.65 322.23L121.65 311.16L125.30 311.16L125.30 334.52L120.40 334.52L113.97 315.64Q114.03 316.57 114.13 317.88Q114.22 319.19 114.29 320.57Q114.35 321.94 114.35 323.10" fill="white" fill-opacity="0.9"/>
<path d="M161.48 325.24L151.24 325.24L151.24 322.68L161.48 322.68" fill="white" fill-opacity="0.9"/>
<path d="M195.02 334.84Q191.82 334.84 189.96 333.05Q188.11 331.26 188.11 328.12L188.11 317.56Q188.11 314.42 189.96 312.63Q191.82 310.84 195.02 310.84Q198.15 310.84 200.01 312.65Q201.87 314.46 201.87 317.56L198.99 317.56Q198.99 315.58 197.95 314.50Q196.91 313.43 195.02 313.43Q193.13 313.43 192.06 314.50Q190.99 315.58 190.99 317.56L190.99 328.12Q190.99 330.10 192.06 331.18Q193.13 332.25 195.02 332.25Q196.91 332.25 197.95 331.18Q198.99 330.10 198.99 328.12L201.87 328.12Q201.87 331.22 200.01 333.03Q198.15 334.84 195.02 334.84" fill="white" fill-opacity="0.9"/>
<path d="M213.96 334.84Q210.83 334.84 209 333.02Q207.18 331.19 207.18 327.80L207.18 317.88Q207.18 314.49 209 312.66Q210.83 310.84 213.96 310.84Q217.10 310.84 218.92 312.66Q220.75 314.49 220.75 317.85L220.75 327.80Q220.75 331.19 218.92 333.02Q217.10 334.84 213.96 334.84M213.96 332.25Q215.85 332.25 216.86 331.18Q217.87 330.10 217.87 328.12L217.87 317.56Q217.87 315.58 216.86 314.50Q215.85 313.43 213.96 313.43Q212.11 313.43 211.08 314.50Q210.06 315.58 210.06 317.56L210.06 328.12Q210.06 330.10 211.08 331.18Q212.11 332.25 213.96 332.25" fill="white" fill-opacity="0.9"/>
<path d="M228.65 334.52L225.87 334.52L225.87 311.16L230.12 311.16L233.10 321.27L236.20 311.16L240.46 311.16L240.46 334.52L237.67 334.52L237.67 323.48Q237.67 321.91 237.72 319.88Q237.77 317.85 237.87 315.77Q237.96 313.69 238.09 312.02L234.31 324.09L231.82 324.09L228.20 312.31Q228.46 314.68 228.55 317.50Q228.65 320.31 228.65 323.48" fill="white" fill-opacity="0.9"/>
<path d="M247.85 334.52L245.07 334.52L245.07 311.16L249.32 311.16L252.30 321.27L255.40 311.16L259.66 311.16L259.66 334.52L256.87 334.52L256.87 323.48Q256.87 321.91 256.92 319.88Q256.97 317.85 257.07 315.77Q257.16 313.69 257.29 312.02L253.51 324.09L251.02 324.09L247.40 312.31Q247.66 314.68 247.75 317.50Q247.85 320.31 247.85 323.48" fill="white" fill-opacity="0.9"/>
<path d="M271.56 334.84Q268.30 334.84 266.57 333.03Q264.84 331.22 264.84 328.12L264.84 311.16L267.72 311.16L267.72 328.12Q267.72 330.04 268.67 331.16Q269.61 332.28 271.56 332.28Q273.48 332.28 274.44 331.16Q275.40 330.04 275.40 328.12L275.40 311.16L278.28 311.16L278.28 328.12Q278.28 331.26 276.57 333.05Q274.86 334.84 271.56 334.84" fill="white" fill-opacity="0.9"/>
<path d="M286.83 334.52L284.04 334.52L284.04 311.16L287.88 311.16L295.02 331.16Q294.95 330.36 294.87 329.19Q294.79 328.02 294.75 326.73Q294.70 325.43 294.70 324.28L294.70 311.16L297.48 311.16L297.48 334.52L293.64 334.52L286.54 314.52Q286.60 315.29 286.67 316.46Q286.73 317.62 286.78 318.92Q286.83 320.22 286.83 321.40" fill="white" fill-opacity="0.9"/>
<path d="M316.20 334.52L303.72 334.52L303.72 331.90L308.49 331.90L308.49 313.78L303.72 313.78L303.72 311.16L316.20 311.16L316.20 313.78L311.43 313.78L311.43 331.90L316.20 331.90" fill="white" fill-opacity="0.9"/>
<path d="M330.60 334.52L327.72 334.52L327.72 313.78L321.32 313.78L321.32 311.16L337 311.16L337 313.78L330.60 313.78" fill="white" fill-opacity="0.9"/>
<path d="M349.80 334.52L346.92 334.52L346.92 325.78L339.88 311.16L342.95 311.16L347.50 320.76Q347.88 321.56 348.11 322.12Q348.33 322.68 348.39 322.94Q348.46 322.68 348.70 322.12Q348.94 321.56 349.32 320.76L353.87 311.16L356.84 311.16L349.80 325.78" fill="white" fill-opacity="0.9"/>
<path d="M382.83 334.52L380.04 334.52L380.04 311.16L383.88 311.16L391.02 331.16Q390.95 330.36 390.87 329.19Q390.79 328.02 390.75 326.73Q390.70 325.43 390.70 324.28L390.70 311.16L393.48 311.16L393.48 334.52L389.64 334.52L382.54 314.52Q382.60 315.29 382.67 316.46Q382.73 317.62 382.78 318.92Q382.83 320.22 382.83 321.40" fill="white" fill-opacity="0.9"/>
<path d="M405.96 334.84Q402.83 334.84 401 333.02Q399.18 331.19 399.18 327.80L399.18 317.88Q399.18 314.49 401 312.66Q402.83 310.84 405.96 310.84Q409.10 310.84 410.92 312.66Q412.75 314.49 412.75 317.85L412.75 327.80Q412.75 331.19 410.92 333.02Q409.10 334.84 405.96 334.84M405.96 332.25Q407.85 332.25 408.86 331.18Q409.87 330.10 409.87 328.12L409.87 317.56Q409.87 315.58 408.86 314.50Q407.85 313.43 405.96 313.43Q404.11 313.43 403.08 314.50Q402.06 315.58 402.06 317.56L402.06 328.12Q402.06 330.10 403.08 331.18Q404.11 332.25 405.96 332.25" fill="white" fill-opacity="0.9"/>
<path d="M424.55 334.52L418.51 334.52L418.51 311.16L424.55 311.16Q426.83 311.16 428.47 312.02Q430.12 312.89 431.03 314.46Q431.95 316.02 431.95 318.17L431.95 327.48Q431.95 329.62 431.03 331.21Q430.12 332.79 428.47 333.66Q426.83 334.52 424.55 334.52M421.39 313.72L421.39 331.96L424.55 331.96Q426.67 331.96 427.87 330.78Q429.07 329.59 429.07 327.48L429.07 318.17Q429.07 316.09 427.87 314.90Q426.67 313.72 424.55 313.72" fill="white" fill-opacity="0.9"/>
<path d="M451.40 334.52L437.96 334.52L437.96 311.16L451.40 311.16L451.40 313.78L440.81 313.78L440.81 321.02L450.28 321.02L450.28 323.58L440.81 323.58L440.81 331.90L451.40 331.90" fill="white" fill-opacity="0.9"/>
<path d="M463.69 334.84Q460.30 334.84 458.28 333.05Q456.27 331.26 456.27 328.12L459.15 328.12Q459.15 330.07 460.39 331.18Q461.64 332.28 463.69 332.28Q465.67 332.28 466.86 331.13Q468.04 329.98 468.04 328.12Q468.04 326.71 467.29 325.67Q466.54 324.63 465.13 324.25L461.58 323.26Q459.37 322.62 458.11 320.97Q456.84 319.32 456.84 317.08Q456.84 315.22 457.67 313.82Q458.51 312.41 460.01 311.62Q461.51 310.84 463.47 310.84Q465.45 310.84 466.97 311.62Q468.49 312.41 469.35 313.80Q470.22 315.19 470.22 317.02L467.34 317.02Q467.34 315.42 466.25 314.41Q465.16 313.40 463.47 313.40Q461.77 313.40 460.71 314.41Q459.66 315.42 459.66 317.02Q459.66 318.30 460.35 319.21Q461.03 320.12 462.28 320.47L465.93 321.50Q468.27 322.14 469.56 323.91Q470.86 325.69 470.86 328.12Q470.86 331.19 468.91 333.02Q466.95 334.84 463.69 334.84" fill="white" fill-opacity="0.9"/>
</g>
<path d="M82.48 197.64L72.40 197.64L72.40 180.12L82.48 180.12L82.48 182.09L74.54 182.09L74.54 187.51L81.64 187.51L81.64 189.43L74.54 189.43L74.54 195.67L82.48 195.67" fill="white" fill-opacity="0.7"/>
<path d="M96.76 197.64L92.92 197.64Q91.29 197.64 90.30 196.69Q89.32 195.74 89.32 194.16L89.32 186.41L85.53 186.41L85.53 184.44L89.32 184.44L89.32 180.72L91.48 180.72L91.48 184.44L96.88 184.44L96.88 186.41L91.48 186.41L91.48 194.16Q91.48 194.83 91.88 195.25Q92.27 195.67 92.92 195.67L96.76 195.67" fill="white" fill-opacity="0.7"/>
<path d="M103.17 197.64L101.01 197.64L101.01 180.12L103.17 180.12L103.17 186.96L103.19 186.96Q103.36 185.64 104.27 184.92Q105.18 184.20 106.70 184.20Q108.69 184.20 109.86 185.42Q111.04 186.65 111.04 188.76L111.04 197.64L108.88 197.64L108.88 189.12Q108.88 187.63 108.12 186.83Q107.37 186.02 106.07 186.02Q104.73 186.02 103.95 186.86Q103.17 187.70 103.17 189.24" fill="white" fill-opacity="0.7"/>
<path d="M120.40 197.88Q118.07 197.88 116.64 196.48Q115.22 195.07 115.22 192.60L115.22 189.48Q115.22 187.01 116.64 185.60Q118.07 184.20 120.40 184.20Q121.96 184.20 123.12 184.82Q124.29 185.45 124.94 186.58Q125.58 187.70 125.58 189.24L125.58 191.59L117.33 191.59L117.33 192.84Q117.33 194.30 118.17 195.16Q119.01 196.01 120.40 196.01Q121.60 196.01 122.38 195.54Q123.16 195.07 123.33 194.28L125.49 194.28Q125.27 195.94 123.88 196.91Q122.49 197.88 120.40 197.88M117.33 189.24L117.33 189.91L123.47 189.91L123.47 189.24Q123.47 187.68 122.67 186.83Q121.86 185.98 120.40 185.98Q118.94 185.98 118.13 186.83Q117.33 187.68 117.33 189.24" fill="white" fill-opacity="0.7"/>
<path d="M132.45 197.64L130.29 197.64L130.29 184.44L132.45 184.44L132.45 186.96L132.50 186.96Q132.66 185.69 133.58 184.94Q134.49 184.20 136.02 184.20Q138.09 184.20 139.20 185.44Q140.32 186.67 140.32 188.95L140.32 190.08L138.16 190.08L138.16 188.95Q138.16 186.07 135.35 186.07Q133.94 186.07 133.19 186.89Q132.45 187.70 132.45 189.24" fill="white" fill-opacity="0.7"/>
<path d="M146.37 201.96L144.21 201.96L144.21 184.44L146.37 184.44L146.37 186.96L146.39 186.96Q146.56 185.66 147.52 184.93Q148.48 184.20 149.97 184.20Q151.96 184.20 153.14 185.51Q154.31 186.82 154.31 189.10L154.31 192.96Q154.31 195.24 153.14 196.56Q151.96 197.88 149.97 197.88Q148.48 197.88 147.52 197.14Q146.56 196.39 146.39 195.12L146.32 195.12L146.37 198.12L146.37 201.96M149.25 196.01Q150.62 196.01 151.38 195.29Q152.15 194.57 152.15 192.96L152.15 189.12Q152.15 187.49 151.38 186.78Q150.62 186.07 149.25 186.07Q147.93 186.07 147.15 186.91Q146.37 187.75 146.37 189.24L146.37 192.84Q146.37 194.33 147.15 195.17Q147.93 196.01 149.25 196.01" fill="white" fill-opacity="0.7"/>
<path d="M162.45 197.88Q160.41 197.88 159.21 196.74Q158.01 195.60 158.01 193.75Q158.01 192.53 158.56 191.62Q159.11 190.70 160.10 190.19Q161.08 189.67 162.35 189.67L166.43 189.67L166.43 188.64Q166.43 186.07 163.62 186.07Q162.38 186.07 161.61 186.53Q160.84 186.98 160.79 187.80L158.63 187.80Q158.75 186.24 160.08 185.22Q161.42 184.20 163.62 184.20Q166.02 184.20 167.31 185.35Q168.59 186.50 168.59 188.57L168.59 197.64L166.46 197.64L166.46 195.24L166.41 195.24Q166.22 196.46 165.18 197.17Q164.15 197.88 162.45 197.88M162.98 196.06Q164.56 196.06 165.50 195.29Q166.43 194.52 166.43 193.20L166.43 191.35L162.59 191.35Q161.54 191.35 160.88 191.99Q160.22 192.62 160.22 193.68Q160.22 194.78 160.95 195.42Q161.68 196.06 162.98 196.06" fill="white" fill-opacity="0.7"/>
<path d="M177.23 197.88Q175.26 197.88 174.08 196.56Q172.89 195.24 172.89 192.98L172.89 189.12Q172.89 186.84 174.06 185.52Q175.24 184.20 177.23 184.20Q178.72 184.20 179.69 184.94Q180.66 185.69 180.86 186.96L180.88 186.96L180.83 183.96L180.83 180.12L182.99 180.12L182.99 197.64L180.83 197.64L180.83 195.12L180.81 195.12Q180.64 196.42 179.68 197.15Q178.72 197.88 177.23 197.88M177.95 196.01Q179.30 196.01 180.06 195.17Q180.83 194.33 180.83 192.84L180.83 189.24Q180.83 187.75 180.06 186.91Q179.30 186.07 177.95 186.07Q176.58 186.07 175.82 186.78Q175.05 187.49 175.05 189.12L175.05 192.96Q175.05 194.57 175.82 195.29Q176.58 196.01 177.95 196.01" fill="white" fill-opacity="0.7"/>
<path d="M192.40 187.75Q191.42 187.75 190.91 187.27Q190.41 186.79 190.41 185.98Q190.41 185.16 190.91 184.68Q191.42 184.20 192.40 184.20Q193.38 184.20 193.89 184.68Q194.39 185.16 194.39 185.98Q194.39 186.79 193.89 187.27Q193.38 187.75 192.40 187.75M192.40 197.88Q191.42 197.88 190.91 197.40Q190.41 196.92 190.41 196.10Q190.41 195.29 190.91 194.81Q191.42 194.33 192.40 194.33Q193.38 194.33 193.89 194.81Q194.39 195.29 194.39 196.10Q194.39 196.92 193.89 197.40Q193.38 197.88 192.40 197.88" fill="white" fill-opacity="0.7"/>
<path d="M218.85 197.64L216.69 197.64L216.69 184.44L218.85 184.44L218.85 186.96L218.90 186.96Q219.06 185.69 219.98 184.94Q220.89 184.20 222.42 184.20Q224.49 184.20 225.60 185.44Q226.72 186.67 226.72 188.95L226.72 190.08L224.56 190.08L224.56 188.95Q224.56 186.07 221.75 186.07Q220.34 186.07 219.59 186.89Q218.85 187.70 218.85 189.24" fill="white" fill-opacity="0.7"/>
<path d="M235.60 197.88Q233.27 197.88 231.84 196.48Q230.42 195.07 230.42 192.60L230.42 189.48Q230.42 187.01 231.84 185.60Q233.27 184.20 235.60 184.20Q237.16 184.20 238.32 184.82Q239.49 185.45 240.14 186.58Q240.78 187.70 240.78 189.24L240.78 191.59L232.53 191.59L232.53 192.84Q232.53 194.30 233.37 195.16Q234.21 196.01 235.60 196.01Q236.80 196.01 237.58 195.54Q238.36 195.07 238.53 194.28L240.69 194.28Q240.47 195.94 239.08 196.91Q237.69 197.88 235.60 197.88M232.53 189.24L232.53 189.91L238.67 189.91L238.67 189.24Q238.67 187.68 237.87 186.83Q237.06 185.98 235.60 185.98Q234.14 185.98 233.33 186.83Q232.53 187.68 232.53 189.24" fill="white" fill-opacity="0.7"/>
<path d="M248.85 197.88Q246.81 197.88 245.61 196.74Q244.41 195.60 244.41 193.75Q244.41 192.53 244.96 191.62Q245.51 190.70 246.50 190.19Q247.48 189.67 248.75 189.67L252.83 189.67L252.83 188.64Q252.83 186.07 250.02 186.07Q248.78 186.07 248.01 186.53Q247.24 186.98 247.19 187.80L245.03 187.80Q245.15 186.24 246.48 185.22Q247.82 184.20 250.02 184.20Q252.42 184.20 253.71 185.35Q254.99 186.50 254.99 188.57L254.99 197.64L252.86 197.64L252.86 195.24L252.81 195.24Q252.62 196.46 251.58 197.17Q250.55 197.88 248.85 197.88M249.38 196.06Q250.96 196.06 251.90 195.29Q252.83 194.52 252.83 193.20L252.83 191.35L248.99 191.35Q247.94 191.35 247.28 191.99Q246.62 192.62 246.62 193.68Q246.62 194.78 247.35 195.42Q248.08 196.06 249.38 196.06" fill="white" fill-opacity="0.7"/>
<path d="M270.40 197.64L266.32 197.64Q264.57 197.64 263.52 196.62Q262.48 195.60 262.48 193.92L262.48 182.09L257.92 182.09L257.92 180.12L264.64 180.12L264.64 193.92Q264.64 194.74 265.10 195.20Q265.55 195.67 266.32 195.67L270.40 195.67" fill="white" fill-opacity="0.7"/>
<path d="M282.64 190.68L274.96 190.68L274.96 188.76L282.64 188.76" fill="white" fill-opacity="0.7"/>
<path d="M298.36 197.64L294.52 197.64Q292.89 197.64 291.90 196.69Q290.92 195.74 290.92 194.16L290.92 186.41L287.13 186.41L287.13 184.44L290.92 184.44L290.92 180.72L293.08 180.72L293.08 184.44L298.48 184.44L298.48 186.41L293.08 186.41L293.08 194.16Q293.08 194.83 293.48 195.25Q293.87 195.67 294.52 195.67L298.36 195.67" fill="white" fill-opacity="0.7"/>
<path d="M313.72 197.64L302.44 197.64L302.44 195.67L307.12 195.67L307.12 186.41L302.92 186.41L302.92 184.44L309.28 184.44L309.28 195.67L313.72 195.67L313.72 197.64M307.96 182.06Q307.17 182.06 306.71 181.66Q306.26 181.25 306.26 180.55Q306.26 179.83 306.71 179.41Q307.17 178.99 307.96 178.99Q308.75 178.99 309.21 179.41Q309.66 179.83 309.66 180.55Q309.66 181.25 309.21 181.66Q308.75 182.06 307.96 182.06" fill="white" fill-opacity="0.7"/>
<path d="M318.26 197.64L316.24 197.64L316.24 184.44L318.11 184.44L318.11 186.19L318.16 186.19Q318.28 185.30 318.87 184.75Q319.46 184.20 320.37 184.20Q321.23 184.20 321.83 184.70Q322.43 185.21 322.70 186.07L322.72 186.07Q322.89 185.21 323.48 184.70Q324.06 184.20 324.98 184.20Q326.25 184.20 327 185.15Q327.76 186.10 327.76 187.61L327.76 197.64L325.74 197.64L325.74 187.58Q325.74 186.79 325.36 186.32Q324.98 185.86 324.30 185.86Q323.66 185.86 323.27 186.31Q322.89 186.77 322.89 187.56L322.89 197.64L321.11 197.64L321.11 187.58Q321.11 186.79 320.73 186.32Q320.34 185.86 319.70 185.86Q319.02 185.86 318.64 186.31Q318.26 186.77 318.26 187.56" fill="white" fill-opacity="0.7"/>
<path d="M336.40 197.88Q334.07 197.88 332.64 196.48Q331.22 195.07 331.22 192.60L331.22 189.48Q331.22 187.01 332.64 185.60Q334.07 184.20 336.40 184.20Q337.96 184.20 339.12 184.82Q340.29 185.45 340.94 186.58Q341.58 187.70 341.58 189.24L341.58 191.59L333.33 191.59L333.33 192.84Q333.33 194.30 334.17 195.16Q335.01 196.01 336.40 196.01Q337.60 196.01 338.38 195.54Q339.16 195.07 339.33 194.28L341.49 194.28Q341.27 195.94 339.88 196.91Q338.49 197.88 336.40 197.88M333.33 189.24L333.33 189.91L339.47 189.91L339.47 189.24Q339.47 187.68 338.67 186.83Q337.86 185.98 336.40 185.98Q334.94 185.98 334.13 186.83Q333.33 187.68 333.33 189.24" fill="white" fill-opacity="0.7"/>
<path d="M365.39 197.88Q362.99 197.88 361.55 196.54Q360.11 195.19 360.11 192.84L360.11 189.24Q360.11 186.89 361.55 185.54Q362.99 184.20 365.39 184.20Q367.67 184.20 369.08 185.42Q370.48 186.65 370.55 188.76L368.39 188.76Q368.32 187.49 367.53 186.80Q366.74 186.12 365.39 186.12Q363.98 186.12 363.12 186.92Q362.27 187.73 362.27 189.22L362.27 192.84Q362.27 194.33 363.12 195.14Q363.98 195.96 365.39 195.96Q366.74 195.96 367.53 195.26Q368.32 194.57 368.39 193.32L370.55 193.32Q370.48 195.43 369.08 196.66Q367.67 197.88 365.39 197.88" fill="white" fill-opacity="0.7"/>
<path d="M379.60 197.83Q377.22 197.83 375.82 196.44Q374.42 195.05 374.42 192.55L374.42 189.53Q374.42 187.01 375.81 185.63Q377.20 184.25 379.60 184.25Q382 184.25 383.39 185.63Q384.78 187.01 384.78 189.53L384.78 192.55Q384.78 195.05 383.38 196.44Q381.98 197.83 379.60 197.83M379.60 195.91Q381.02 195.91 381.82 195.12Q382.62 194.33 382.62 192.79L382.62 189.29Q382.62 187.75 381.82 186.96Q381.02 186.17 379.60 186.17Q378.21 186.17 377.39 186.96Q376.58 187.75 376.58 189.29L376.58 192.79Q376.58 194.33 377.39 195.12Q378.21 195.91 379.60 195.91" fill="white" fill-opacity="0.7"/>
<path d="M400 197.64L395.92 197.64Q394.17 197.64 393.12 196.62Q392.08 195.60 392.08 193.92L392.08 182.09L387.52 182.09L387.52 180.12L394.24 180.12L394.24 193.92Q394.24 194.74 394.70 195.20Q395.15 195.67 395.92 195.67L400 195.67" fill="white" fill-opacity="0.7"/>
<path d="M414.40 197.64L410.32 197.64Q408.57 197.64 407.52 196.62Q406.48 195.60 406.48 193.92L406.48 182.09L401.92 182.09L401.92 180.12L408.64 180.12L408.64 193.92Q408.64 194.74 409.10 195.20Q409.55 195.67 410.32 195.67L414.40 195.67" fill="white" fill-opacity="0.7"/>
<path d="M421.65 197.88Q419.61 197.88 418.41 196.74Q417.21 195.60 417.21 193.75Q417.21 192.53 417.76 191.62Q418.31 190.70 419.30 190.19Q420.28 189.67 421.55 189.67L425.63 189.67L425.63 188.64Q425.63 186.07 422.82 186.07Q421.58 186.07 420.81 186.53Q420.04 186.98 419.99 187.80L417.83 187.80Q417.95 186.24 419.28 185.22Q420.62 184.20 422.82 184.20Q425.22 184.20 426.51 185.35Q427.79 186.50 427.79 188.57L427.79 197.64L425.66 197.64L425.66 195.24L425.61 195.24Q425.42 196.46 424.38 197.17Q423.35 197.88 421.65 197.88M422.18 196.06Q423.76 196.06 424.70 195.29Q425.63 194.52 425.63 193.20L425.63 191.35L421.79 191.35Q420.74 191.35 420.08 191.99Q419.42 192.62 419.42 193.68Q419.42 194.78 420.15 195.42Q420.88 196.06 422.18 196.06" fill="white" fill-opacity="0.7"/>
<path d="M437.97 197.88Q436.48 197.88 435.52 197.15Q434.56 196.42 434.39 195.12L434.37 195.12L434.37 197.64L432.21 197.64L432.21 180.12L434.37 180.12L434.37 183.96L434.32 186.96L434.34 186.96Q434.54 185.69 435.51 184.94Q436.48 184.20 437.97 184.20Q439.96 184.20 441.14 185.52Q442.31 186.84 442.31 189.12L442.31 192.98Q442.31 195.24 441.14 196.56Q439.96 197.88 437.97 197.88M437.25 196.01Q438.62 196.01 439.38 195.29Q440.15 194.57 440.15 192.96L440.15 189.12Q440.15 187.49 439.38 186.78Q438.62 186.07 437.25 186.07Q435.93 186.07 435.15 186.91Q434.37 187.75 434.37 189.24L434.37 192.84Q434.37 194.33 435.15 195.17Q435.93 196.01 437.25 196.01" fill="white" fill-opacity="0.7"/>
<path d="M451.60 197.83Q449.22 197.83 447.82 196.44Q446.42 195.05 446.42 192.55L446.42 189.53Q446.42 187.01 447.81 185.63Q449.20 184.25 451.60 184.25Q454 184.25 455.39 185.63Q456.78 187.01 456.78 189.53L456.78 192.55Q456.78 195.05 455.38 196.44Q453.98 197.83 451.60 197.83M451.60 195.91Q453.02 195.91 453.82 195.12Q454.62 194.33 454.62 192.79L454.62 189.29Q454.62 187.75 453.82 186.96Q453.02 186.17 451.60 186.17Q450.21 186.17 449.39 186.96Q448.58 187.75 448.58 189.29L448.58 192.79Q448.58 194.33 449.39 195.12Q450.21 195.91 451.60 195.91" fill="white" fill-opacity="0.7"/>
<path d="M463.65 197.64L461.49 197.64L461.49 184.44L463.65 184.44L463.65 186.96L463.70 186.96Q463.86 185.69 464.78 184.94Q465.69 184.20 467.22 184.20Q469.29 184.20 470.40 185.44Q471.52 186.67 471.52 188.95L471.52 190.08L469.36 190.08L469.36 188.95Q469.36 186.07 466.55 186.07Q465.14 186.07 464.39 186.89Q463.65 187.70 463.65 189.24" fill="white" fill-opacity="0.7"/>
<path d="M479.25 197.88Q477.21 197.88 476.01 196.74Q474.81 195.60 474.81 193.75Q474.81 192.53 475.36 191.62Q475.91 190.70 476.90 190.19Q477.88 189.67 479.15 189.67L483.23 189.67L483.23 188.64Q483.23 186.07 480.42 186.07Q479.18 186.07 478.41 186.53Q477.64 186.98 477.59 187.80L475.43 187.80Q475.55 186.24 476.88 185.22Q478.22 184.20 480.42 184.20Q482.82 184.20 484.11 185.35Q485.39 186.50 485.39 188.57L485.39 197.64L483.26 197.64L483.26 195.24L483.21 195.24Q483.02 196.46 481.98 197.17Q480.95 197.88 479.25 197.88M479.78 196.06Q481.36 196.06 482.30 195.29Q483.23 194.52 483.23 193.20L483.23 191.35L479.39 191.35Q478.34 191.35 477.68 191.99Q477.02 192.62 477.02 193.68Q477.02 194.78 477.75 195.42Q478.48 196.06 479.78 196.06" fill="white" fill-opacity="0.7"/>
<path d="M499.96 197.64L496.12 197.64Q494.49 197.64 493.50 196.69Q492.52 195.74 492.52 194.16L492.52 186.41L488.73 186.41L488.73 184.44L492.52 184.44L492.52 180.72L494.68 180.72L494.68 184.44L500.08 184.44L500.08 186.41L494.68 186.41L494.68 194.16Q494.68 194.83 495.08 195.25Q495.47 195.67 496.12 195.67L499.96 195.67" fill="white" fill-opacity="0.7"/>
<path d="M515.32 197.64L504.04 197.64L504.04 195.67L508.72 195.67L508.72 186.41L504.52 186.41L504.52 184.44L510.88 184.44L510.88 195.67L515.32 195.67L515.32 197.64M509.56 182.06Q508.77 182.06 508.31 181.66Q507.86 181.25 507.86 180.55Q507.86 179.83 508.31 179.41Q508.77 178.99 509.56 178.99Q510.35 178.99 510.81 179.41Q511.26 179.83 511.26 180.55Q511.26 181.25 510.81 181.66Q510.35 182.06 509.56 182.06" fill="white" fill-opacity="0.7"/>
<path d="M525.02 197.64L522.18 197.64L517.70 184.44L520.02 184.44L522.90 193.32Q523.17 194.11 523.36 194.84Q523.55 195.58 523.65 195.98Q523.77 195.58 523.94 194.84Q524.10 194.11 524.34 193.32L527.22 184.44L529.50 184.44" fill="white" fill-opacity="0.7"/>
<path d="M538 197.88Q535.67 197.88 534.24 196.48Q532.82 195.07 532.82 192.60L532.82 189.48Q532.82 187.01 534.24 185.60Q535.67 184.20 538 184.20Q539.56 184.20 540.72 184.82Q541.89 185.45 542.54 186.58Q543.18 187.70 543.18 189.24L543.18 191.59L534.93 191.59L534.93 192.84Q534.93 194.30 535.77 195.16Q536.61 196.01 538 196.01Q539.20 196.01 539.98 195.54Q540.76 195.07 540.93 194.28L543.09 194.28Q542.87 195.94 541.48 196.91Q540.09 197.88 538 197.88M534.93 189.24L534.93 189.91L541.07 189.91L541.07 189.24Q541.07 187.68 540.27 186.83Q539.46 185.98 538 185.98Q536.54 185.98 535.73 186.83Q534.93 187.68 534.93 189.24" fill="white" fill-opacity="0.7"/>
<path d="M566.80 197.88Q564.47 197.88 563.04 196.48Q561.62 195.07 561.62 192.60L561.62 189.48Q561.62 187.01 563.04 185.60Q564.47 184.20 566.80 184.20Q568.36 184.20 569.52 184.82Q570.69 185.45 571.34 186.58Q571.98 187.70 571.98 189.24L571.98 191.59L563.73 191.59L563.73 192.84Q563.73 194.30 564.57 195.16Q565.41 196.01 566.80 196.01Q568 196.01 568.78 195.54Q569.56 195.07 569.73 194.28L571.89 194.28Q571.67 195.94 570.28 196.91Q568.89 197.88 566.80 197.88M563.73 189.24L563.73 189.91L569.87 189.91L569.87 189.24Q569.87 187.68 569.07 186.83Q568.26 185.98 566.80 185.98Q565.34 185.98 564.53 186.83Q563.73 187.68 563.73 189.24" fill="white" fill-opacity="0.7"/>
<path d="M580.43 197.88Q578.46 197.88 577.28 196.56Q576.09 195.24 576.09 192.98L576.09 189.12Q576.09 186.84 577.26 185.52Q578.44 184.20 580.43 184.20Q581.92 184.20 582.89 184.94Q583.86 185.69 584.06 186.96L584.08 186.96L584.03 183.96L584.03 180.12L586.19 180.12L586.19 197.64L584.03 197.64L584.03 195.12L584.01 195.12Q583.84 196.42 582.88 197.15Q581.92 197.88 580.43 197.88M581.15 196.01Q582.50 196.01 583.26 195.17Q584.03 194.33 584.03 192.84L584.03 189.24Q584.03 187.75 583.26 186.91Q582.50 186.07 581.15 186.07Q579.78 186.07 579.02 186.78Q578.25 187.49 578.25 189.12L578.25 192.96Q578.25 194.57 579.02 195.29Q579.78 196.01 581.15 196.01" fill="white" fill-opacity="0.7"/>
<path d="M601.72 197.64L590.44 197.64L590.44 195.67L595.12 195.67L595.12 186.41L590.92 186.41L590.92 184.44L597.28 184.44L597.28 195.67L601.72 195.67L601.72 197.64M595.96 182.06Q595.17 182.06 594.71 181.66Q594.26 181.25 594.26 180.55Q594.26 179.83 594.71 179.41Q595.17 178.99 595.96 178.99Q596.75 178.99 597.21 179.41Q597.66 179.83 597.66 180.55Q597.66 181.25 597.21 181.66Q596.75 182.06 595.96 182.06" fill="white" fill-opacity="0.7"/>
<path d="M615.16 197.64L611.32 197.64Q609.69 197.64 608.70 196.69Q607.72 195.74 607.72 194.16L607.72 186.41L603.93 186.41L603.93 184.44L607.72 184.44L607.72 180.72L609.88 180.72L609.88 184.44L615.28 184.44L615.28 186.41L609.88 186.41L609.88 194.16Q609.88 194.83 610.28 195.25Q610.67 195.67 611.32 195.67L615.16 195.67" fill="white" fill-opacity="0.7"/>
<path d="M624.40 197.83Q622.02 197.83 620.62 196.44Q619.22 195.05 619.22 192.55L619.22 189.53Q619.22 187.01 620.61 185.63Q622 184.25 624.40 184.25Q626.80 184.25 628.19 185.63Q629.58 187.01 629.58 189.53L629.58 192.55Q629.58 195.05 628.18 196.44Q626.78 197.83 624.40 197.83M624.40 195.91Q625.82 195.91 626.62 195.12Q627.42 194.33 627.42 192.79L627.42 189.29Q627.42 187.75 626.62 186.96Q625.82 186.17 624.40 186.17Q623.01 186.17 622.19 186.96Q621.38 187.75 621.38 189.29L621.38 192.79Q621.38 194.33 622.19 195.12Q623.01 195.91 624.40 195.91" fill="white" fill-opacity="0.7"/>
<path d="M636.45 197.64L634.29 197.64L634.29 184.44L636.45 184.44L636.45 186.96L636.50 186.96Q636.66 185.69 637.58 184.94Q638.49 184.20 640.02 184.20Q642.09 184.20 643.20 185.44Q644.32 186.67 644.32 188.95L644.32 190.08L642.16 190.08L642.16 188.95Q642.16 186.07 639.35 186.07Q637.94 186.07 637.19 186.89Q636.45 187.70 636.45 189.24" fill="white" fill-opacity="0.7"/>
<path d="M653.27 201.48L651.04 201.48L652.36 194.14L654.95 194.14" fill="white" fill-opacity="0.7"/>
<path d="M682.53 197.83L681.47 197.83Q679.26 197.83 678.05 196.84Q676.84 195.84 676.84 194.02L679 194.02Q679 194.93 679.65 195.44Q680.30 195.96 681.47 195.96L682.53 195.96Q683.73 195.96 684.39 195.43Q685.05 194.90 685.05 193.94Q685.05 192.24 683.49 192.02L679.84 191.50Q678.50 191.30 677.75 190.38Q677.01 189.46 677.01 187.94Q677.01 186.22 678.20 185.23Q679.38 184.25 681.47 184.25L682.53 184.25Q684.45 184.25 685.66 185.20Q686.87 186.14 686.97 187.68L684.78 187.68Q684.74 186.98 684.12 186.53Q683.51 186.07 682.53 186.07L681.47 186.07Q680.37 186.07 679.74 186.58Q679.12 187.08 679.12 187.94Q679.12 189.34 680.39 189.53L683.80 190.01Q687.16 190.49 687.16 193.94Q687.16 195.79 685.95 196.81Q684.74 197.83 682.53 197.83" fill="white" fill-opacity="0.7"/>
<path d="M696.59 197.88Q694.19 197.88 692.75 196.54Q691.31 195.19 691.31 192.84L691.31 189.24Q691.31 186.89 692.75 185.54Q694.19 184.20 696.59 184.20Q698.87 184.20 700.28 185.42Q701.68 186.65 701.75 188.76L699.59 188.76Q699.52 187.49 698.73 186.80Q697.94 186.12 696.59 186.12Q695.18 186.12 694.32 186.92Q693.47 187.73 693.47 189.22L693.47 192.84Q693.47 194.33 694.32 195.14Q695.18 195.96 696.59 195.96Q697.94 195.96 698.73 195.26Q699.52 194.57 699.59 193.32L701.75 193.32Q701.68 195.43 700.28 196.66Q698.87 197.88 696.59 197.88" fill="white" fill-opacity="0.7"/>
<path d="M709.65 197.88Q707.61 197.88 706.41 196.74Q705.21 195.60 705.21 193.75Q705.21 192.53 705.76 191.62Q706.31 190.70 707.30 190.19Q708.28 189.67 709.55 189.67L713.63 189.67L713.63 188.64Q713.63 186.07 710.82 186.07Q709.58 186.07 708.81 186.53Q708.04 186.98 707.99 187.80L705.83 187.80Q705.95 186.24 707.28 185.22Q708.62 184.20 710.82 184.20Q713.22 184.20 714.51 185.35Q715.79 186.50 715.79 188.57L715.79 197.64L713.66 197.64L713.66 195.24L713.61 195.24Q713.42 196.46 712.38 197.17Q711.35 197.88 709.65 197.88M710.18 196.06Q711.76 196.06 712.70 195.29Q713.63 194.52 713.63 193.20L713.63 191.35L709.79 191.35Q708.74 191.35 708.08 191.99Q707.42 192.62 707.42 193.68Q707.42 194.78 708.15 195.42Q708.88 196.06 710.18 196.06" fill="white" fill-opacity="0.7"/>
<path d="M731.20 197.64L727.12 197.64Q725.37 197.64 724.32 196.62Q723.28 195.60 723.28 193.92L723.28 182.09L718.72 182.09L718.72 180.12L725.44 180.12L725.44 193.92Q725.44 194.74 725.90 195.20Q726.35 195.67 727.12 195.67L731.20 195.67" fill="white" fill-opacity="0.7"/>
<path d="M738.45 197.88Q736.41 197.88 735.21 196.74Q734.01 195.60 734.01 193.75Q734.01 192.53 734.56 191.62Q735.11 190.70 736.10 190.19Q737.08 189.67 738.35 189.67L742.43 189.67L742.43 188.64Q742.43 186.07 739.62 186.07Q738.38 186.07 737.61 186.53Q736.84 186.98 736.79 187.80L734.63 187.80Q734.75 186.24 736.08 185.22Q737.42 184.20 739.62 184.20Q742.02 184.20 743.31 185.35Q744.59 186.50 744.59 188.57L744.59 197.64L742.46 197.64L742.46 195.24L742.41 195.24Q742.22 196.46 741.18 197.17Q740.15 197.88 738.45 197.88M738.98 196.06Q740.56 196.06 741.50 195.29Q742.43 194.52 742.43 193.20L742.43 191.35L738.59 191.35Q737.54 191.35 736.88 191.99Q736.22 192.62 736.22 193.68Q736.22 194.78 736.95 195.42Q737.68 196.06 738.98 196.06" fill="white" fill-opacity="0.7"/>
<path d="M754.77 197.88Q753.28 197.88 752.32 197.15Q751.36 196.42 751.19 195.12L751.17 195.12L751.17 197.64L749.01 197.64L749.01 180.12L751.17 180.12L751.17 183.96L751.12 186.96L751.14 186.96Q751.34 185.69 752.31 184.94Q753.28 184.20 754.77 184.20Q756.76 184.20 757.94 185.52Q759.11 186.84 759.11 189.12L759.11 192.98Q759.11 195.24 757.94 196.56Q756.76 197.88 754.77 197.88M754.05 196.01Q755.42 196.01 756.18 195.29Q756.95 194.57 756.95 192.96L756.95 189.12Q756.95 187.49 756.18 186.78Q755.42 186.07 754.05 186.07Q752.73 186.07 751.95 186.91Q751.17 187.75 751.17 189.24L751.17 192.84Q751.17 194.33 751.95 195.17Q752.73 196.01 754.05 196.01" fill="white" fill-opacity="0.7"/>
<path d="M774.40 197.64L770.32 197.64Q768.57 197.64 767.52 196.62Q766.48 195.60 766.48 193.92L766.48 182.09L761.92 182.09L761.92 180.12L768.64 180.12L768.64 193.92Q768.64 194.74 769.10 195.20Q769.55 195.67 770.32 195.67L774.40 195.67" fill="white" fill-opacity="0.7"/>
<path d="M782.80 197.88Q780.47 197.88 779.04 196.48Q777.62 195.07 777.62 192.60L777.62 189.48Q777.62 187.01 779.04 185.60Q780.47 184.20 782.80 184.20Q784.36 184.20 785.52 184.82Q786.69 185.45 787.34 186.58Q787.98 187.70 787.98 189.24L787.98 191.59L779.73 191.59L779.73 192.84Q779.73 194.30 780.57 195.16Q781.41 196.01 782.80 196.01Q784 196.01 784.78 195.54Q785.56 195.07 785.73 194.28L787.89 194.28Q787.67 195.94 786.28 196.91Q784.89 197.88 782.80 197.88M779.73 189.24L779.73 189.91L785.87 189.91L785.87 189.24Q785.87 187.68 785.07 186.83Q784.26 185.98 782.80 185.98Q781.34 185.98 780.53 186.83Q779.73 187.68 779.73 189.24" fill="white" fill-opacity="0.7"/>
<path d="M797.27 201.48L795.04 201.48L796.36 194.14L798.95 194.14" fill="white" fill-opacity="0.7"/>
<path d="M826.53 197.83L825.47 197.83Q823.26 197.83 822.05 196.84Q820.84 195.84 820.84 194.02L823 194.02Q823 194.93 823.65 195.44Q824.30 195.96 825.47 195.96L826.53 195.96Q827.73 195.96 828.39 195.43Q829.05 194.90 829.05 193.94Q829.05 192.24 827.49 192.02L823.84 191.50Q822.50 191.30 821.75 190.38Q821.01 189.46 821.01 187.94Q821.01 186.22 822.20 185.23Q823.38 184.25 825.47 184.25L826.53 184.25Q828.45 184.25 829.66 185.20Q830.87 186.14 830.97 187.68L828.78 187.68Q828.74 186.98 828.12 186.53Q827.51 186.07 826.53 186.07L825.47 186.07Q824.37 186.07 823.74 186.58Q823.12 187.08 823.12 187.94Q823.12 189.34 824.39 189.53L827.80 190.01Q831.16 190.49 831.16 193.94Q831.16 195.79 829.95 196.81Q828.74 197.83 826.53 197.83" fill="white" fill-opacity="0.7"/>
<path d="M840.40 197.88Q838.07 197.88 836.64 196.48Q835.22 195.07 835.22 192.60L835.22 189.48Q835.22 187.01 836.64 185.60Q838.07 184.20 840.40 184.20Q841.96 184.20 843.12 184.82Q844.29 185.45 844.94 186.58Q845.58 187.70 845.58 189.24L845.58 191.59L837.33 191.59L837.33 192.84Q837.33 194.30 838.17 195.16Q839.01 196.01 840.40 196.01Q841.60 196.01 842.38 195.54Q843.16 195.07 843.33 194.28L845.49 194.28Q845.27 195.94 843.88 196.91Q842.49 197.88 840.40 197.88M837.33 189.24L837.33 189.91L843.47 189.91L843.47 189.24Q843.47 187.68 842.67 186.83Q841.86 185.98 840.40 185.98Q838.94 185.98 838.13 186.83Q837.33 187.68 837.33 189.24" fill="white" fill-opacity="0.7"/>
<path d="M860.80 197.64L856.72 197.64Q854.97 197.64 853.92 196.62Q852.88 195.60 852.88 193.92L852.88 182.09L848.32 182.09L848.32 180.12L855.04 180.12L855.04 193.92Q855.04 194.74 855.50 195.20Q855.95 195.67 856.72 195.67L860.80 195.67" fill="white" fill-opacity="0.7"/>
<path d="M869.32 197.64L867.16 197.64L867.16 188.21L863.32 188.21L863.32 186.24L867.16 186.24L867.16 183.48Q867.16 181.92 868.14 181.02Q869.13 180.12 870.86 180.12L874.72 180.12L874.72 182.09L870.86 182.09Q869.32 182.09 869.32 183.48L869.32 186.24L874.72 186.24L874.72 188.21L869.32 188.21" fill="white" fill-opacity="0.7"/>
<path d="M887.44 190.68L879.76 190.68L879.76 188.76L887.44 188.76" fill="white" fill-opacity="0.7"/>
<path d="M895.17 197.64L893.01 197.64L893.01 180.12L895.17 180.12L895.17 186.96L895.19 186.96Q895.36 185.64 896.27 184.92Q897.18 184.20 898.70 184.20Q900.69 184.20 901.86 185.42Q903.04 186.65 903.04 188.76L903.04 197.64L900.88 197.64L900.88 189.12Q900.88 187.63 900.12 186.83Q899.37 186.02 898.07 186.02Q896.73 186.02 895.95 186.86Q895.17 187.70 895.17 189.24" fill="white" fill-opacity="0.7"/>
<path d="M912.40 197.83Q910.02 197.83 908.62 196.44Q907.22 195.05 907.22 192.55L907.22 189.53Q907.22 187.01 908.61 185.63Q910 184.25 912.40 184.25Q914.80 184.25 916.19 185.63Q917.58 187.01 917.58 189.53L917.58 192.55Q917.58 195.05 916.18 196.44Q914.78 197.83 912.40 197.83M912.40 195.91Q913.82 195.91 914.62 195.12Q915.42 194.33 915.42 192.79L915.42 189.29Q915.42 187.75 914.62 186.96Q913.82 186.17 912.40 186.17Q911.01 186.17 910.19 186.96Q909.38 187.75 909.38 189.29L909.38 192.79Q909.38 194.33 910.19 195.12Q911.01 195.91 912.40 195.91" fill="white" fill-opacity="0.7"/>
<path d="M927.33 197.83L926.27 197.83Q924.06 197.83 922.85 196.84Q921.64 195.84 921.64 194.02L923.80 194.02Q923.80 194.93 924.45 195.44Q925.10 195.96 926.27 195.96L927.33 195.96Q928.53 195.96 929.19 195.43Q929.85 194.90 929.85 193.94Q929.85 192.24 928.29 192.02L924.64 191.50Q923.30 191.30 922.55 190.38Q921.81 189.46 921.81 187.94Q921.81 186.22 923 185.23Q924.18 184.25 926.27 184.25L927.33 184.25Q929.25 184.25 930.46 185.20Q931.67 186.14 931.77 187.68L929.58 187.68Q929.54 186.98 928.92 186.53Q928.31 186.07 927.33 186.07L926.27 186.07Q925.17 186.07 924.54 186.58Q923.92 187.08 923.92 187.94Q923.92 189.34 925.19 189.53L928.60 190.01Q931.96 190.49 931.96 193.94Q931.96 195.79 930.75 196.81Q929.54 197.83 927.33 197.83" fill="white" fill-opacity="0.7"/>
<path d="M946.36 197.64L942.52 197.64Q940.89 197.64 939.90 196.69Q938.92 195.74 938.92 194.16L938.92 186.41L935.13 186.41L935.13 184.44L938.92 184.44L938.92 180.72L941.08 180.72L941.08 184.44L946.48 184.44L946.48 186.41L941.08 186.41L941.08 194.16Q941.08 194.83 941.48 195.25Q941.87 195.67 942.52 195.67L946.36 195.67" fill="white" fill-opacity="0.7"/>
<path d="M955.60 197.88Q953.27 197.88 951.84 196.48Q950.42 195.07 950.42 192.60L950.42 189.48Q950.42 187.01 951.84 185.60Q953.27 184.20 955.60 184.20Q957.16 184.20 958.32 184.82Q959.49 185.45 960.14 186.58Q960.78 187.70 960.78 189.24L960.78 191.59L952.53 191.59L952.53 192.84Q952.53 194.30 953.37 195.16Q954.21 196.01 955.60 196.01Q956.80 196.01 957.58 195.54Q958.36 195.07 958.53 194.28L960.69 194.28Q960.47 195.94 959.08 196.91Q957.69 197.88 955.60 197.88M952.53 189.24L952.53 189.91L958.67 189.91L958.67 189.24Q958.67 187.68 957.87 186.83Q957.06 185.98 955.60 185.98Q954.14 185.98 953.33 186.83Q952.53 187.68 952.53 189.24" fill="white" fill-opacity="0.7"/>
<path d="M969.23 197.88Q967.26 197.88 966.08 196.56Q964.89 195.24 964.89 192.98L964.89 189.12Q964.89 186.84 966.06 185.52Q967.24 184.20 969.23 184.20Q970.72 184.20 971.69 184.94Q972.66 185.69 972.86 186.96L972.88 186.96L972.83 183.96L972.83 180.12L974.99 180.12L974.99 197.64L972.83 197.64L972.83 195.12L972.81 195.12Q972.64 196.42 971.68 197.15Q970.72 197.88 969.23 197.88M969.95 196.01Q971.30 196.01 972.06 195.17Q972.83 194.33 972.83 192.84L972.83 189.24Q972.83 187.75 972.06 186.91Q971.30 186.07 969.95 186.07Q968.58 186.07 967.82 186.78Q967.05 187.49 967.05 189.12L967.05 192.96Q967.05 194.57 967.82 195.29Q968.58 196.01 969.95 196.01" fill="white" fill-opacity="0.7"/>
<path d="M984.47 201.48L982.24 201.48L983.56 194.14L986.15 194.14" fill="white" fill-opacity="0.7"/>
<path d="M1013.32 197.64L1011.16 197.64L1011.16 188.21L1007.32 188.21L1007.32 186.24L1011.16 186.24L1011.16 183.48Q1011.16 181.92 1012.14 181.02Q1013.13 180.12 1014.86 180.12L1018.72 180.12L1018.72 182.09L1014.86 182.09Q1013.32 182.09 1013.32 183.48L1013.32 186.24L1018.72 186.24L1018.72 188.21L1013.32 188.21" fill="white" fill-opacity="0.7"/>
<path d="M1027.58 197.88Q1025.30 197.88 1023.93 196.52Q1022.56 195.17 1022.56 192.84L1022.56 184.44L1024.72 184.44L1024.72 192.84Q1024.72 194.28 1025.49 195.13Q1026.26 195.98 1027.58 195.98Q1028.92 195.98 1029.70 195.13Q1030.48 194.28 1030.48 192.84L1030.48 184.44L1032.64 184.44L1032.64 192.84Q1032.64 195.17 1031.25 196.52Q1029.86 197.88 1027.58 197.88" fill="white" fill-opacity="0.7"/>
<path d="M1048 197.64L1043.92 197.64Q1042.17 197.64 1041.12 196.62Q1040.08 195.60 1040.08 193.92L1040.08 182.09L1035.52 182.09L1035.52 180.12L1042.24 180.12L1042.24 193.92Q1042.24 194.74 1042.70 195.20Q1043.15 195.67 1043.92 195.67L1048 195.67" fill="white" fill-opacity="0.7"/>
<path d="M1062.40 197.64L1058.32 197.64Q1056.57 197.64 1055.52 196.62Q1054.48 195.60 1054.48 193.92L1054.48 182.09L1049.92 182.09L1049.92 180.12L1056.64 180.12L1056.64 193.92Q1056.64 194.74 1057.10 195.20Q1057.55 195.67 1058.32 195.67L1062.40 195.67" fill="white" fill-opacity="0.7"/>
<path d="M1084.43 197.88Q1082.46 197.88 1081.28 196.56Q1080.09 195.24 1080.09 192.98L1080.09 189.12Q1080.09 186.84 1081.26 185.52Q1082.44 184.20 1084.43 184.20Q1085.92 184.20 1086.89 184.94Q1087.86 185.69 1088.06 186.96L1088.08 186.96L1088.03 183.96L1088.03 180.12L1090.19 180.12L1090.19 197.64L1088.03 197.64L1088.03 195.12L1088.01 195.12Q1087.84 196.42 1086.88 197.15Q1085.92 197.88 1084.43 197.88M1085.15 196.01Q1086.50 196.01 1087.26 195.17Q1088.03 194.33 1088.03 192.84L1088.03 189.24Q1088.03 187.75 1087.26 186.91Q1086.50 186.07 1085.15 186.07Q1083.78 186.07 1083.02 186.78Q1082.25 187.49 1082.25 189.12L1082.25 192.96Q1082.25 194.57 1083.02 195.29Q1083.78 196.01 1085.15 196.01" fill="white" fill-opacity="0.7"/>
<path d="M1098.45 197.88Q1096.41 197.88 1095.21 196.74Q1094.01 195.60 1094.01 193.75Q1094.01 192.53 1094.56 191.62Q1095.11 190.70 1096.10 190.19Q1097.08 189.67 1098.35 189.67L1102.43 189.67L1102.43 188.64Q1102.43 186.07 1099.62 186.07Q1098.38 186.07 1097.61 186.53Q1096.84 186.98 1096.79 187.80L1094.63 187.80Q1094.75 186.24 1096.08 185.22Q1097.42 184.20 1099.62 184.20Q1102.02 184.20 1103.31 185.35Q1104.59 186.50 1104.59 188.57L1104.59 197.64L1102.46 197.64L1102.46 195.24L1102.41 195.24Q1102.22 196.46 1101.18 197.17Q1100.15 197.88 1098.45 197.88M1098.98 196.06Q1100.56 196.06 1101.50 195.29Q1102.43 194.52 1102.43 193.20L1102.43 191.35L1098.59 191.35Q1097.54 191.35 1096.88 191.99Q1096.22 192.62 1096.22 193.68Q1096.22 194.78 1096.95 195.42Q1097.68 196.06 1098.98 196.06" fill="white" fill-opacity="0.7"/>
<path d="M1119.16 197.64L1115.32 197.64Q1113.69 197.64 1112.70 196.69Q1111.72 195.74 1111.72 194.16L1111.72 186.41L1107.93 186.41L1107.93 184.44L1111.72 184.44L1111.72 180.72L1113.88 180.72L1113.88 184.44L1119.28 184.44L1119.28 186.41L1113.88 186.41L1113.88 194.16Q1113.88 194.83 1114.28 195.25Q1114.67 195.67 1115.32 195.67L1119.16 195.67" fill="white" fill-opacity="0.7"/>
<path d="M1127.25 197.88Q1125.21 197.88 1124.01 196.74Q1122.81 195.60 1122.81 193.75Q1122.81 192.53 1123.36 191.62Q1123.91 190.70 1124.90 190.19Q1125.88 189.67 1127.15 189.67L1131.23 189.67L1131.23 188.64Q1131.23 186.07 1128.42 186.07Q1127.18 186.07 1126.41 186.53Q1125.64 186.98 1125.59 187.80L1123.43 187.80Q1123.55 186.24 1124.88 185.22Q1126.22 184.20 1128.42 184.20Q1130.82 184.20 1132.11 185.35Q1133.39 186.50 1133.39 188.57L1133.39 197.64L1131.26 197.64L1131.26 195.24L1131.21 195.24Q1131.02 196.46 1129.98 197.17Q1128.95 197.88 1127.25 197.88M1127.78 196.06Q1129.36 196.06 1130.30 195.29Q1131.23 194.52 1131.23 193.20L1131.23 191.35L1127.39 191.35Q1126.34 191.35 1125.68 191.99Q1125.02 192.62 1125.02 193.68Q1125.02 194.78 1125.75 195.42Q1126.48 196.06 1127.78 196.06" fill="white" fill-opacity="0.7"/>
<path d="M77.20 229.88Q74.87 229.88 73.44 228.48Q72.02 227.07 72.02 224.60L72.02 221.48Q72.02 219.01 73.44 217.60Q74.87 216.20 77.20 216.20Q78.76 216.20 79.92 216.82Q81.09 217.45 81.74 218.58Q82.38 219.70 82.38 221.24L82.38 223.59L74.13 223.59L74.13 224.84Q74.13 226.30 74.97 227.16Q75.81 228.01 77.20 228.01Q78.40 228.01 79.18 227.54Q79.96 227.07 80.13 226.28L82.29 226.28Q82.07 227.94 80.68 228.91Q79.29 229.88 77.20 229.88M74.13 221.24L74.13 221.91L80.27 221.91L80.27 221.24Q80.27 219.68 79.47 218.83Q78.66 217.98 77.20 217.98Q75.74 217.98 74.93 218.83Q74.13 219.68 74.13 221.24" fill="white" fill-opacity="0.7"/>
<path d="M88.14 229.64L85.60 229.64L90.28 222.85L85.89 216.44L88.43 216.44L91.05 220.52Q91.22 220.78 91.37 221.10Q91.53 221.41 91.62 221.60Q91.70 221.41 91.85 221.10Q92.01 220.78 92.18 220.52L94.79 216.44L97.34 216.44L92.94 222.87L97.60 229.64L95.06 229.64L92.22 225.32Q92.06 225.06 91.90 224.71Q91.74 224.36 91.62 224.14Q91.53 224.36 91.35 224.71Q91.17 225.06 90.98 225.32" fill="white" fill-opacity="0.7"/>
<path d="M103.17 233.96L101.01 233.96L101.01 216.44L103.17 216.44L103.17 218.96L103.19 218.96Q103.36 217.66 104.32 216.93Q105.28 216.20 106.77 216.20Q108.76 216.20 109.94 217.51Q111.11 218.82 111.11 221.10L111.11 224.96Q111.11 227.24 109.94 228.56Q108.76 229.88 106.77 229.88Q105.28 229.88 104.32 229.14Q103.36 228.39 103.19 227.12L103.12 227.12L103.17 230.12L103.17 233.96M106.05 228.01Q107.42 228.01 108.18 227.29Q108.95 226.57 108.95 224.96L108.95 221.12Q108.95 219.49 108.18 218.78Q107.42 218.07 106.05 218.07Q104.73 218.07 103.95 218.91Q103.17 219.75 103.17 221.24L103.17 224.84Q103.17 226.33 103.95 227.17Q104.73 228.01 106.05 228.01" fill="white" fill-opacity="0.7"/>
<path d="M120.40 229.83Q118.02 229.83 116.62 228.44Q115.22 227.05 115.22 224.55L115.22 221.53Q115.22 219.01 116.61 217.63QNaN 216.25 120.40 216.25Q122.80 216.25 124.19 217.63Q125.58 219.01 125.58 221.53L125.58 224.55Q125.58 227.05 124.18 228.44Q122.78 229.83 120.40 229.83M120.40 227.91Q121.82 227.91 122.62 227.12Q123.42 226.33 123.42 224.79L123.42 221.29Q123.42 219.75 122.62 218.96Q121.82 218.17 120.40 218.17Q119.01 218.17 118.19 218.96Q117.38 219.75 117.38 221.29L117.38 224.79Q117.38 226.33 118.19 227.12Q119.01 227.91 120.40 227.91" fill="white" fill-opacity="0.7"/>
<path d="M132.45 229.64L130.29 229.64L130.29 216.44L132.45 216.44L132.45 218.96L132.50 218.96Q132.66 217.69 133.58 216.94Q134.49 216.20 136.02 216.20Q138.09 216.20 139.20 217.44Q140.32 218.67 140.32 220.95L140.32 222.08L138.16 222.08L138.16 220.95Q138.16 218.07 135.35 218.07Q133.94 218.07 133.19 218.89Q132.45 219.70 132.45 221.24" fill="white" fill-opacity="0.7"/>
<path d="M154.36 229.64L150.52 229.64Q148.89 229.64 147.90 228.69Q146.92 227.74 146.92 226.16L146.92 218.41L143.13 218.41L143.13 216.44L146.92 216.44L146.92 212.72L149.08 212.72L149.08 216.44L154.48 216.44L154.48 218.41L149.08 218.41L149.08 226.16Q149.08 226.83 149.48 227.25Q149.87 227.67 150.52 227.67L154.36 227.67" fill="white" fill-opacity="0.7"/>
<path d="M163.60 229.88Q162.71 229.88 162.17 229.35Q161.63 228.82 161.63 227.98Q161.63 227.10 162.17 226.54Q162.71 225.99 163.60 225.99Q164.49 225.99 165.03 226.54Q165.57 227.10 165.57 227.98Q165.57 228.82 165.03 229.35Q164.49 229.88 163.60 229.88" fill="white" fill-opacity="0.7"/>
<path d="M112.11 136.06L71.31 136.06L71.31 65.98L112.11 65.98L112.11 74.52L80.72 74.52L80.72 95.36L108.75 95.36L108.75 103.61L80.72 103.61L80.72 127.52L112.11 127.52L112.11 136.06M153.20 136.06L143.70 136.06L143.70 74.62L124.69 74.62L124.69 65.98L172.11 65.98L172.11 74.62L153.20 74.62L153.20 136.06M195.25 136.06L185.74 136.06L185.74 65.98L195.25 65.98L195.25 95.55L216.75 95.55L216.75 65.98L226.26 65.98L226.26 136.06L216.75 136.06L216.75 104.19L195.25 104.19L195.25 136.06M284.91 136.06L244.11 136.06L244.11 65.98L284.91 65.98L284.91 74.52L253.52 74.52L253.52 95.36L281.55 95.36L281.55 103.61L253.52 103.61L253.52 127.52L284.91 127.52L284.91 136.06M310.35 136.06L300.94 136.06L300.94 65.98L322.64 65.98Q329.07 65.98 333.87 68.52Q338.67 71.07 341.36 75.63Q344.05 80.19 344.05 86.33Q344.05 93.44 340.45 98.52Q336.85 103.61 330.90 105.72L345.01 136.06L334.54 136.06L321.20 106.78L310.35 106.78L310.35 136.06M310.35 74.43L310.35 98.33L322.64 98.33Q328.02 98.33 331.14 95.07Q334.26 91.80 334.26 86.43Q334.26 80.96 331.09 77.69Q327.92 74.43 322.64 74.43L310.35 74.43M367.95 136.06L358.45 136.06L358.45 65.98L381.20 65.98Q387.92 65.98 392.82 68.57Q397.71 71.16 400.40 75.82Q403.09 80.48 403.09 86.91Q403.09 93.24 400.40 97.90Q397.71 102.56 392.77 105.15Q387.82 107.74 381.20 107.74L367.95 107.74L367.95 136.06M367.95 74.43L367.95 99.29L381.20 99.29Q386.77 99.29 390.03 95.88Q393.30 92.48 393.30 86.91Q393.30 81.24 390.03 77.84Q386.77 74.43 381.20 74.43L367.95 74.43M421.71 136.06L412.02 136.06L430.16 65.98L442.74 65.98L460.78 136.06L451.09 136.06L446.67 117.82L426.13 117.82L421.71 136.06M433.14 88.92L428.05 109.95L444.75 109.95L439.76 89.02Q438.32 83.26 437.46 79.23Q436.59 75.20 436.40 73.76Q436.21 75.20 435.34 79.23Q434.48 83.26 433.14 88.92M492.46 136.06L473.65 136.06L473.65 65.98L492.46 65.98Q499.28 65.98 504.32 68.62Q509.36 71.26 512.14 76.01Q514.93 80.76 514.93 87.20L514.93 114.75Q514.93 121.18 512.14 125.98Q509.36 130.78 504.32 133.42Q499.28 136.06 492.46 136.06M483.15 74.43L483.15 127.61L492.46 127.61Q498.51 127.61 501.97 124.16Q505.42 120.70 505.42 114.75L505.42 87.20Q505.42 81.24 501.97 77.84Q498.51 74.43 492.46 74.43" fill="url(#paint2_linear_0_1)"/>
<g id="Group 1">
<rect id="Rectangle 1" x="26" y="168" width="12" height="184" rx="5" fill="url(#paint3_linear_0_1)" fill-opacity="0.9"/>
</g>
<g id="Group 1_2">
<rect id="Rectangle 2" x="26" y="38" width="12" height="119" rx="5" fill="url(#paint4_linear_0_1)" fill-opacity="0.9"/>
</g>
<ellipse id="Ellipse 1" cx="148.5" cy="573" rx="215.5" ry="214" fill="url(#paint5_linear_0_1)" fill-opacity="0.4"/>
<rect id="Rectangle 3" x="1229" y="48" width="300" height="300" rx="25" fill="#FFFBFB" fill-opacity="0.9"/>
<g id="placeholder-logo"><g transform="translate(1229,48) translate(0.0,60.0) scale(1.2000)"><g fill="#666666">
  <path d="m88.05,27.65c-3.15,4 -3.2,51.2 -0.05,54.35c2.75,2.75 71.7,3.15 74.45,0.45c2.85,-2.9 2.3,-53.85 -0.65,-55.9c-1.95,-1.35 -7.15,-1.55 -36.95,-1.55l-34.7,0l-2.1,2.65zm69.45,3.35c0.65,0 1,8.6 1,23.75l0,23.75l-33,0l-33,0l-0.25,-23c-0.15,-12.6 -0.1,-23.45 0.15,-24.1c0.35,-0.85 8.9,-1.05 32.25,-0.75c17.55,0.2 32.3,0.35 32.85,0.35z"/>
  <path d="m99.15,37.3c-6.85,7.35 4.25,17.35 11.4,10.25c1.35,-1.35 2.45,-3.65 2.45,-5.05c0,-6.45 -9.35,-9.95 -13.85,-5.2z"/>
  <path d="m135,42.5c-0.7,0.85 -5.25,5.15 -10.1,9.6l-8.85,8.1l-3.2,-3.2l-3.15,-3.15l-6.35,6.3c-5.55,5.5 -6.35,6.75 -6.35,10.05l0,3.8l28.5,0l28.5,0l0,-8.6l0,-8.55l-8.15,-7.7c-9.35,-8.85 -9.15,-8.7 -10.85,-6.65zm7.25,15.2c0.95,0.9 1.75,2.9 1.75,4.45c6.35,-5.05 4.75,-7.15 4.9,-11.55c0.95,0 0,0 0,0l-6.65,7.1z"/>
  <path d="m53.65,110.75c0.1,4.8 0.45,8.65 0.75,8.5c0.35,-0.15 1.3,-0.25 2.1,-0.25c1.1,0 1.5,-1.2 1.5,-4.75l0,-4.75l3.25,5c4.9,7.5 6.2,6.75 6.55,-3.75c0.25,-8.15 0.15,-8.75 -1.7,-8.75c-1.65,0 -2.05,0.8 -2.3,4.75l-0.3,4.75l-2.8,-4.75c-4.85,-8.25 -7.25,-6.9 -7.05,4z"/>
  <path d="m91,108.9c0,9.65 0.3,10.1 6.1,10.1c5.8,0 7.15,-2.65 1.65,-3.2l-3.25,-0.3l-0.3,-6.75c-0.25,-5.95 -0.55,-6.75 -2.25,-6.75c-1.75,0 -1.95,0.7 -1.95,6.9z"/>
  <path d="m151,102.45c0,0.25 1,2.15 2.25,4.2c1.2,2.1 2.45,5.8 2.75,8.25c0.65,5.9 4,6.95 4,1.25c0.05,-2.1 1.25,-5.85 2.95,-8.9l2.9,-5.25l-2.5,0c-1.8,0 -2.8,0.85 -3.75,3.1l-1.3,3.05l-1.25,-3.05c-1.1,-2.6 -6.05,-4.8 -6.05,-2.65z"/>
  <path d="m191,107.45c0,9.05 3.4,8.85 4.25,-0.2c0.45,-5 0.35,-5.25 -1.9,-5.25c-2.2,0 -2.35,0.4 -2.35,5.45z"/>
  <path d="m180.8,104.75c-1.3,5.35 0.65,13.6 3.45,14.35c2.3,0.6 2.75,0.4 2.75,-1.2c0,-1.05 -0.45,-1.9 -1,-1.9c-0.55,0 -1,-1.6 -1,-3.5c0,-1.95 0.45,-3.5 1,-3.5c0.55,0 1,-0.7 1,-1.5c0,-0.85 -0.45,-1.5 -1,-1.5c-0.55,0 -1,-0.7 -1,-1.5c0,-2.1 -3.65,-1.9 -4.2,0.25z"/>
  <path d="m71.55,106.55c-2.2,2.25 -2.05,9.7 0.3,11.8c4.5,4.1 10.15,0.75 10.15,-6.1c0,-4.85 -2,-7.25 -6,-7.25c-1.55,0 -3.55,0.7 -4.45,1.55zm6.25,5.8c0.25,3.05 0,3.65 -1.6,3.65c-2.3,0 -3.25,-2.65 -2.05,-5.85c1.25,-3.35 3.3,-2.1 3.65,2.2z"/>
  <path d="m105.75,106.1c-2.5,1.45 -2.45,9.95 0.1,12.25c4.3,3.9 10.15,0.35 10.15,-6.2c0,-6 -5.15,-9.05 -10.25,-6.05zm6.05,6.25c0.25,3.05 0,3.65 -1.6,3.65c-2.3,0 -3.25,-2.65 -2.05,-5.85c1.25,-3.35 3.3,-2.1 3.65,2.2z"/>
  <path d="m119.2,106.2c-3.8,3.8 -0.4,12.55 4.4,11.35c1.9,-0.45 2.45,-0.3 2.15,0.65c-0.25,0.7 -1.55,1.2 -2.85,1.1c-4.05,-0.3 -5.35,0.45 -3.85,2.25c0.85,1.05 2.6,1.45 5.35,1.25l4.1,-0.3l0.3,-8.75l0.3,-8.75l-4.35,0c-2.4,0 -4.9,0.55 -5.55,1.2zm6.6,4.45c0.4,2.85 -2.15,4.85 -3.75,2.95c-0.9,-1.1 -0.9,-2 -0.05,-3.6c1.35,-2.5 3.4,-2.15 3.8,0.65z"/>
  <path d="m133.55,106.55c-2.2,2.25 -2.05,9.7 0.3,11.8c4.5,4.1 10.15,0.75 10.15,-6.1c0,-4.85 -2,-7.25 -6,-7.25c-1.55,0 -3.55,0.7 -4.45,1.55zm6.25,5.8c0.25,3.05 0,3.65 -1.6,3.65c-2.3,0 -3.25,-2.65 -2.05,-5.85c1.25,-3.35 3.3,-2.1 3.65,2.2z"/>
  <path d="m167.65,106.85c-3.9,4.3 -0.75,13.15 4.7,13.15c2.4,0 5.65,-2.75 5.65,-4.85c0,-1.4 -2.65,-1.55 -3.5,-0.15c-0.95,1.55 -4.5,1.15 -4.5,-0.5c0,-1.1 1.1,-1.5 4,-1.5c3.15,0 4,-0.35 4,-1.8c0,-5.3 -6.85,-8.25 -10.35,-4.35z"/>
  <path d="m191,117.5c0,2.15 0.4,2.6 2.25,2.3c1.5,-0.2 2.25,-1 2.25,-2.3c0,-1.3 -0.75,-2.1 -2.25,-2.3c-1.85,-0.3 -2.25,0.15 -2.25,2.3z"/>
 </g></g></g>
</g>
<defs>
<linearGradient id="paint0_linear_0_1" x1="0" y1="198" x2="1584" y2="198" gradientUnits="userSpaceOnUse">
<stop stop-color="#3D052C"/>
<stop offset="1"/>
</linearGradient>
<linearGradient id="paint1_linear_0_1" x1="323" y1="-224" x2="323" y2="352" gradientUnits="userSpaceOnUse">
<stop stop-color="#28F6F2" stop-opacity="0.4"/>
<stop offset="1" stop-color="#17908E" stop-opacity="0.7"/>
</linearGradient>
<linearGradient id="paint2_linear_0_1" x1="148.5" y1="38" x2="148.5" y2="140" gradientUnits="userSpaceOnUse">
<stop stop-color="white"/>
<stop offset="1" stop-color="#999999"/>
</linearGradient>
<linearGradient id="paint3_linear_0_1" x1="38" y1="260" x2="26" y2="260" gradientUnits="userSpaceOnUse">
<stop stop-color="#D9D9D9"/>
<stop offset="1" stop-color="#737373"/>
</linearGradient>
<linearGradient id="paint4_linear_0_1" x1="38" y1="97.5" x2="26" y2="97.5" gradientUnits="userSpaceOnUse">
<stop stop-color="#D9D9D9"/>
<stop offset="1" stop-color="#737373"/>
</linearGradient>
<linearGradient id="paint5_linear_0_1" x1="27.5" y1="434.5" x2="148.5" y2="787" gradientUnits="userSpaceOnUse">
<stop stop-color="#2E21BC"/>
<stop offset="1" stop-color="#150F56"/>
</linearGradient>
<clipPath id="clip0_0_1">
<rect width="1584" height="396" fill="white"/>
</clipPath>
</defs>
</svg>
